<svg width="127" height="21" viewBox="0 0 127 21" fill="none" xmlns="http://www.w3.org/2000/svg">
<path fill-rule="evenodd" clip-rule="evenodd" d="M56 21L-6.99382e-07 21L0 13L56 13L56 21Z" fill="#FFC746"/>
<path d="M10.6855 16H2.07227V2.81641H4.7793V13.6357H10.6855V16ZM15.7744 16.1758C14.8721 16.1758 14.0635 15.9795 13.3486 15.5869C12.6338 15.1885 12.0713 14.6465 11.6611 13.9609C11.2568 13.2695 11.0547 12.4844 11.0547 11.6055C11.0547 10.7324 11.2568 9.95312 11.6611 9.26758C12.0713 8.57617 12.6338 8.03125 13.3486 7.63281C14.0635 7.23438 14.8721 7.03516 15.7744 7.03516C16.6768 7.03516 17.4795 7.23438 18.1826 7.63281C18.8916 8.03125 19.4482 8.57617 19.8525 9.26758C20.2627 9.95312 20.4678 10.7324 20.4678 11.6055C20.4678 12.4844 20.2627 13.2695 19.8525 13.9609C19.4482 14.6465 18.8916 15.1885 18.1826 15.5869C17.4795 15.9795 16.6768 16.1758 15.7744 16.1758ZM15.7656 13.917C16.1699 13.917 16.5303 13.8174 16.8467 13.6182C17.1689 13.4131 17.4209 13.1377 17.6025 12.792C17.79 12.4404 17.8838 12.0391 17.8838 11.5879C17.8838 11.1543 17.79 10.7646 17.6025 10.4189C17.4209 10.0732 17.1689 9.80078 16.8467 9.60156C16.5303 9.39648 16.1699 9.29395 15.7656 9.29395C15.3555 9.29395 14.9893 9.39648 14.667 9.60156C14.3506 9.80078 14.0986 10.0732 13.9111 10.4189C13.7295 10.7646 13.6387 11.1543 13.6387 11.5879C13.6387 12.0391 13.7295 12.4404 13.9111 12.792C14.0986 13.1377 14.3506 13.4131 14.667 13.6182C14.9893 13.8174 15.3555 13.917 15.7656 13.917ZM25.6709 16.1055C24.8799 16.1055 24.1709 15.9092 23.5439 15.5166C22.917 15.1182 22.4248 14.5791 22.0674 13.8994C21.71 13.2139 21.5312 12.4375 21.5312 11.5703C21.5312 10.6973 21.71 9.9209 22.0674 9.24121C22.4248 8.56152 22.917 8.02539 23.5439 7.63281C24.1709 7.23438 24.8828 7.03516 25.6797 7.03516C26.3008 7.03516 26.8691 7.1582 27.3848 7.4043C27.9062 7.64453 28.3545 7.97852 28.7295 8.40625L28.8438 7.21094H31.0586V15.7539C31.0586 16.7266 30.8447 17.5732 30.417 18.2939C29.9951 19.0205 29.3975 19.5801 28.624 19.9727C27.8506 20.3711 26.9453 20.5703 25.9082 20.5703C24.4668 20.5703 23.1602 20.1191 21.9883 19.2168L23.0078 17.1602C23.7871 17.9277 24.6953 18.3115 25.7324 18.3115C26.2891 18.3115 26.7754 18.2002 27.1914 17.9775C27.6133 17.7549 27.9414 17.4443 28.1758 17.0459C28.416 16.6475 28.5361 16.1846 28.5361 15.6572V14.9365C28.1729 15.2998 27.748 15.5869 27.2617 15.7979C26.7754 16.0029 26.2451 16.1055 25.6709 16.1055ZM26.3213 13.8555C26.7314 13.8555 27.1035 13.7676 27.4375 13.5918C27.7715 13.4102 28.0381 13.1611 28.2373 12.8447C28.4365 12.5225 28.5361 12.1592 28.5361 11.7549V11.377C28.5361 10.9727 28.4336 10.6123 28.2285 10.2959C28.0293 9.97949 27.7627 9.7334 27.4287 9.55762C27.1006 9.37598 26.7314 9.28516 26.3213 9.28516C25.8994 9.28516 25.5215 9.38477 25.1875 9.58398C24.8535 9.7832 24.5898 10.0557 24.3965 10.4014C24.2031 10.7412 24.1064 11.1309 24.1064 11.5703C24.1064 12.0098 24.2031 12.4023 24.3965 12.748C24.5898 13.0938 24.8535 13.3662 25.1875 13.5654C25.5215 13.7588 25.8994 13.8555 26.3213 13.8555ZM38.4678 5.11035C38.1338 5.11035 37.8525 4.99316 37.624 4.75879C37.3955 4.52441 37.2812 4.24023 37.2812 3.90625C37.2812 3.57227 37.3955 3.29102 37.624 3.0625C37.8525 2.82812 38.1338 2.71094 38.4678 2.71094C38.8076 2.71094 39.0918 2.82812 39.3203 3.0625C39.5547 3.29102 39.6719 3.57227 39.6719 3.90625C39.6719 4.24023 39.5547 4.52441 39.3203 4.75879C39.0918 4.99316 38.8076 5.11035 38.4678 5.11035ZM39.7334 16H37.2109V7.21094H39.7334V16ZM50.6758 16H48.1533V11.5C48.1533 10.8145 47.9893 10.2783 47.6611 9.8916C47.3389 9.49902 46.8965 9.30273 46.334 9.30273C45.748 9.30273 45.2822 9.50781 44.9365 9.91797C44.5967 10.3223 44.4268 10.873 44.4268 11.5703V16H41.9043V7.21094H43.9434L44.0312 8.61719C44.3477 8.10156 44.7607 7.70898 45.2705 7.43945C45.7803 7.16992 46.3809 7.03516 47.0723 7.03516C48.1914 7.03516 49.0703 7.38086 49.709 8.07227C50.3535 8.75781 50.6758 9.70703 50.6758 10.9199V16ZM62.8662 15.7715C62.1924 16.041 61.5391 16.1758 60.9062 16.1758C60.25 16.1758 59.6699 16.0381 59.166 15.7627C58.668 15.4814 58.2783 15.0918 57.9971 14.5938C57.7158 14.0898 57.5752 13.5098 57.5752 12.8535V9.46094H56.0371V7.21094H57.707V5.01367H60.0977V7.21094H62.5322V9.46094H60.0977V12.3965C60.0977 12.877 60.2295 13.252 60.4932 13.5215C60.7568 13.7852 61.085 13.917 61.4775 13.917C61.835 13.917 62.1836 13.8057 62.5234 13.583L62.8662 15.7715ZM68.5088 16.1758C67.6064 16.1758 66.7979 15.9795 66.083 15.5869C65.3682 15.1885 64.8057 14.6465 64.3955 13.9609C63.9912 13.2695 63.7891 12.4844 63.7891 11.6055C63.7891 10.7324 63.9912 9.95312 64.3955 9.26758C64.8057 8.57617 65.3682 8.03125 66.083 7.63281C66.7979 7.23438 67.6064 7.03516 68.5088 7.03516C69.4111 7.03516 70.2139 7.23438 70.917 7.63281C71.626 8.03125 72.1826 8.57617 72.5869 9.26758C72.9971 9.95312 73.2021 10.7324 73.2021 11.6055C73.2021 12.4844 72.9971 13.2695 72.5869 13.9609C72.1826 14.6465 71.626 15.1885 70.917 15.5869C70.2139 15.9795 69.4111 16.1758 68.5088 16.1758ZM68.5 13.917C68.9043 13.917 69.2646 13.8174 69.5811 13.6182C69.9033 13.4131 70.1553 13.1377 70.3369 12.792C70.5244 12.4404 70.6182 12.0391 70.6182 11.5879C70.6182 11.1543 70.5244 10.7646 70.3369 10.4189C70.1553 10.0732 69.9033 9.80078 69.5811 9.60156C69.2646 9.39648 68.9043 9.29395 68.5 9.29395C68.0898 9.29395 67.7236 9.39648 67.4014 9.60156C67.085 9.80078 66.833 10.0732 66.6455 10.4189C66.4639 10.7646 66.373 11.1543 66.373 11.5879C66.373 12.0391 66.4639 12.4404 66.6455 12.792C66.833 13.1377 67.085 13.4131 67.4014 13.6182C67.7236 13.8174 68.0898 13.917 68.5 13.917ZM92.9775 16H90.2705V6.68359L86.9746 13.7852H84.8828L81.5957 6.70996V16H78.8887V2.81641H82.3252L85.9287 10.7793L89.5322 2.81641H92.9775V16ZM99.3057 16.1758C98.4033 16.1758 97.5947 15.9795 96.8799 15.5869C96.165 15.1885 95.6025 14.6465 95.1924 13.9609C94.7881 13.2695 94.5859 12.4844 94.5859 11.6055C94.5859 10.7324 94.7881 9.95312 95.1924 9.26758C95.6025 8.57617 96.165 8.03125 96.8799 7.63281C97.5947 7.23438 98.4033 7.03516 99.3057 7.03516C100.208 7.03516 101.011 7.23438 101.714 7.63281C102.423 8.03125 102.979 8.57617 103.384 9.26758C103.794 9.95312 103.999 10.7324 103.999 11.6055C103.999 12.4844 103.794 13.2695 103.384 13.9609C102.979 14.6465 102.423 15.1885 101.714 15.5869C101.011 15.9795 100.208 16.1758 99.3057 16.1758ZM99.2969 13.917C99.7012 13.917 100.062 13.8174 100.378 13.6182C100.7 13.4131 100.952 13.1377 101.134 12.792C101.321 12.4404 101.415 12.0391 101.415 11.5879C101.415 11.1543 101.321 10.7646 101.134 10.4189C100.952 10.0732 100.7 9.80078 100.378 9.60156C100.062 9.39648 99.7012 9.29395 99.2969 9.29395C98.8867 9.29395 98.5205 9.39648 98.1982 9.60156C97.8818 9.80078 97.6299 10.0732 97.4424 10.4189C97.2607 10.7646 97.1699 11.1543 97.1699 11.5879C97.1699 12.0391 97.2607 12.4404 97.4424 12.792C97.6299 13.1377 97.8818 13.4131 98.1982 13.6182C98.5205 13.8174 98.8867 13.917 99.2969 13.917ZM108.13 16H105.607V2.81641H108.13V10.9199L108.991 9.88281L111.522 7.21094H114.678L110.96 11.1221L115.117 16H111.856L109.229 12.7041L108.13 13.7061V16ZM118.721 16H115.258L119.02 11.5L115.451 7.21094H118.932L120.76 9.80371L122.57 7.21094H126.024L122.482 11.4824L126.244 16H122.755L120.742 13.1436L118.721 16Z" fill="#69235B"/>
</svg>
