<svg width="315" height="14" viewBox="0 0 315 14" fill="none" xmlns="http://www.w3.org/2000/svg">
<line opacity="0.2" y1="6.5" x2="132" y2="6.5" stroke="#a2a2a2"/>
<line opacity="0.2" x1="183" y1="6.5" x2="315" y2="6.5" stroke="#a2a2a2"/>
<path d="M156.86 6.90909C156.86 7.9465 156.683 8.85795 156.328 9.64347C155.973 10.429 155.479 11.0421 154.846 11.483C154.213 11.9205 153.479 12.1392 152.644 12.1392C151.805 12.1392 151.07 11.9188 150.437 11.478C149.804 11.0372 149.31 10.424 148.955 9.63849C148.604 8.85298 148.428 7.94318 148.428 6.90909C148.428 5.87169 148.605 4.96188 148.96 4.17969C149.315 3.39418 149.809 2.78101 150.442 2.3402C151.075 1.89938 151.809 1.67898 152.644 1.67898C153.479 1.67898 154.213 1.89938 154.846 2.3402C155.479 2.7777 155.973 3.3892 156.328 4.17472C156.683 4.96023 156.86 5.87169 156.86 6.90909ZM156.542 6.90909C156.542 5.93466 156.378 5.07955 156.05 4.34375C155.721 3.60464 155.264 3.02959 154.677 2.61861C154.094 2.20431 153.416 1.99716 152.644 1.99716C151.875 1.99716 151.197 2.20265 150.611 2.61364C150.027 3.02131 149.57 3.5947 149.238 4.33381C148.91 5.0696 148.746 5.92803 148.746 6.90909C148.746 7.87689 148.909 8.73035 149.233 9.46946C149.558 10.2053 150.012 10.782 150.596 11.1996C151.182 11.6139 151.865 11.821 152.644 11.821C153.416 11.821 154.096 11.6155 154.682 11.2045C155.269 10.7902 155.726 10.2152 156.054 9.4794C156.383 8.74029 156.545 7.88352 156.542 6.90909ZM159.564 12V1.81818H162.547C163.117 1.81818 163.621 1.93916 164.058 2.18111C164.499 2.42306 164.844 2.76113 165.092 3.19531C165.344 3.6295 165.47 4.13826 165.47 4.72159C165.47 5.2983 165.344 5.80374 165.092 6.23793C164.844 6.6688 164.499 7.00521 164.058 7.24716C163.621 7.4858 163.117 7.60511 162.547 7.60511H159.723V7.28693H162.547C163.057 7.28693 163.508 7.18087 163.899 6.96875C164.29 6.75663 164.597 6.45833 164.819 6.07386C165.041 5.68939 165.152 5.23864 165.152 4.72159C165.152 4.20123 165.041 3.74716 164.819 3.35938C164.597 2.97159 164.29 2.67164 163.899 2.45952C163.508 2.24408 163.057 2.13636 162.547 2.13636H159.882V12H159.564ZM163.442 7.36648L165.947 12H165.589L163.084 7.36648H163.442Z" fill="#a2a2a2"/>
</svg>
