<svg width="165" height="20" viewBox="0 0 165 20" fill="none" xmlns="http://www.w3.org/2000/svg">
<path fill-rule="evenodd" clip-rule="evenodd" d="M165 19L115 19L115 11L165 11L165 19Z" fill="#FFC746"/>
<path d="M8.946 5.568C8.862 5.484 8.706 5.37 8.478 5.226C8.262 5.082 7.992 4.944 7.668 4.812C7.356 4.68 7.014 4.566 6.642 4.47C6.27 4.362 5.892 4.308 5.508 4.308C4.836 4.308 4.326 4.434 3.978 4.686C3.642 4.938 3.474 5.292 3.474 5.748C3.474 6.096 3.582 6.372 3.798 6.576C4.014 6.78 4.338 6.954 4.77 7.098C5.202 7.242 5.742 7.398 6.39 7.566C7.23 7.77 7.956 8.022 8.568 8.322C9.192 8.61 9.666 8.994 9.99 9.474C10.326 9.942 10.494 10.566 10.494 11.346C10.494 12.03 10.368 12.618 10.116 13.11C9.864 13.59 9.516 13.98 9.072 14.28C8.628 14.58 8.124 14.802 7.56 14.946C6.996 15.078 6.396 15.144 5.76 15.144C5.124 15.144 4.488 15.078 3.852 14.946C3.216 14.814 2.604 14.628 2.016 14.388C1.428 14.136 0.888 13.836 0.396 13.488L1.494 11.346C1.602 11.454 1.794 11.598 2.07 11.778C2.346 11.946 2.682 12.12 3.078 12.3C3.474 12.468 3.906 12.612 4.374 12.732C4.842 12.852 5.316 12.912 5.796 12.912C6.468 12.912 6.978 12.798 7.326 12.57C7.674 12.342 7.848 12.018 7.848 11.598C7.848 11.214 7.71 10.914 7.434 10.698C7.158 10.482 6.774 10.296 6.282 10.14C5.79 9.972 5.208 9.792 4.536 9.6C3.732 9.372 3.06 9.12 2.52 8.844C1.98 8.556 1.578 8.196 1.314 7.764C1.05 7.332 0.918 6.792 0.918 6.144C0.918 5.268 1.122 4.536 1.53 3.948C1.95 3.348 2.514 2.898 3.222 2.598C3.93 2.286 4.716 2.13 5.58 2.13C6.18 2.13 6.744 2.196 7.272 2.328C7.812 2.46 8.316 2.634 8.784 2.85C9.252 3.066 9.672 3.3 10.044 3.552L8.946 5.568ZM12.1371 15V5.568H14.5491V15H12.1371ZM12.1371 4.254V1.86H14.5491V4.254H12.1371ZM20.415 15.054C19.791 15.054 19.215 14.934 18.687 14.694C18.171 14.442 17.721 14.094 17.337 13.65C16.965 13.206 16.677 12.696 16.473 12.12C16.269 11.544 16.167 10.932 16.167 10.284C16.167 9.6 16.275 8.964 16.491 8.376C16.707 7.788 17.007 7.272 17.391 6.828C17.787 6.372 18.249 6.024 18.777 5.784C19.317 5.532 19.911 5.406 20.559 5.406C21.291 5.406 21.933 5.574 22.485 5.91C23.037 6.234 23.493 6.672 23.853 7.224V5.568H25.959V14.55C25.959 15.486 25.731 16.284 25.275 16.944C24.831 17.616 24.213 18.126 23.421 18.474C22.629 18.834 21.729 19.014 20.721 19.014C19.701 19.014 18.837 18.84 18.129 18.492C17.421 18.156 16.815 17.676 16.311 17.052L17.625 15.774C17.985 16.218 18.435 16.566 18.975 16.818C19.527 17.07 20.109 17.196 20.721 17.196C21.237 17.196 21.705 17.1 22.125 16.908C22.557 16.728 22.899 16.44 23.151 16.044C23.415 15.66 23.547 15.162 23.547 14.55V13.362C23.235 13.902 22.791 14.322 22.215 14.622C21.651 14.91 21.051 15.054 20.415 15.054ZM21.225 13.128C21.489 13.128 21.741 13.086 21.981 13.002C22.221 12.918 22.443 12.804 22.647 12.66C22.851 12.516 23.031 12.348 23.187 12.156C23.343 11.952 23.463 11.748 23.547 11.544V9.294C23.403 8.922 23.199 8.598 22.935 8.322C22.683 8.046 22.395 7.836 22.071 7.692C21.759 7.536 21.429 7.458 21.081 7.458C20.709 7.458 20.373 7.536 20.073 7.692C19.773 7.848 19.515 8.07 19.299 8.358C19.083 8.634 18.915 8.946 18.795 9.294C18.687 9.63 18.633 9.984 18.633 10.356C18.633 10.74 18.699 11.1 18.831 11.436C18.963 11.772 19.143 12.066 19.371 12.318C19.611 12.57 19.887 12.768 20.199 12.912C20.523 13.056 20.865 13.128 21.225 13.128ZM36.8992 15H34.4872V9.708C34.4872 8.952 34.3552 8.4 34.0912 8.052C33.8272 7.704 33.4612 7.53 32.9932 7.53C32.6692 7.53 32.3392 7.614 32.0032 7.782C31.6792 7.95 31.3852 8.184 31.1212 8.484C30.8572 8.772 30.6652 9.108 30.5452 9.492V15H28.1332V5.568H30.3112V7.314C30.5512 6.906 30.8572 6.564 31.2292 6.288C31.6012 6 32.0272 5.784 32.5072 5.64C32.9992 5.484 33.5152 5.406 34.0552 5.406C34.6432 5.406 35.1232 5.514 35.4952 5.73C35.8792 5.934 36.1672 6.216 36.3592 6.576C36.5632 6.924 36.7012 7.32 36.7732 7.764C36.8572 8.208 36.8992 8.658 36.8992 9.114V15ZM43.2307 11.472V5.568H45.6427V10.95C45.6427 11.67 45.7747 12.216 46.0387 12.588C46.3027 12.948 46.6927 13.128 47.2087 13.128C47.5207 13.128 47.8267 13.068 48.1267 12.948C48.4387 12.816 48.7207 12.624 48.9727 12.372C49.2367 12.12 49.4587 11.802 49.6387 11.418V5.568H52.0507V12.3C52.0507 12.552 52.0927 12.732 52.1767 12.84C52.2727 12.948 52.4227 13.014 52.6267 13.038V15C52.3867 15.036 52.1827 15.06 52.0147 15.072C51.8587 15.096 51.7147 15.108 51.5827 15.108C51.1507 15.108 50.7967 15.012 50.5207 14.82C50.2567 14.616 50.1007 14.34 50.0527 13.992L49.9987 13.236C49.5787 13.872 49.0387 14.358 48.3787 14.694C47.7187 15.018 46.9927 15.18 46.2007 15.18C45.2287 15.18 44.4907 14.868 43.9867 14.244C43.4827 13.608 43.2307 12.684 43.2307 11.472ZM60.0996 15.18C59.3676 15.18 58.7196 15.018 58.1556 14.694C57.6036 14.358 57.1716 13.908 56.8596 13.344V18.834H54.4476V5.568H56.5536V7.188C56.9136 6.636 57.3696 6.204 57.9216 5.892C58.4736 5.568 59.1036 5.406 59.8116 5.406C60.4476 5.406 61.0296 5.532 61.5576 5.784C62.0976 6.036 62.5656 6.39 62.9616 6.846C63.3576 7.29 63.6636 7.806 63.8796 8.394C64.1076 8.97 64.2216 9.594 64.2216 10.266C64.2216 11.178 64.0416 12.006 63.6816 12.75C63.3336 13.494 62.8476 14.088 62.2236 14.532C61.6116 14.964 60.9036 15.18 60.0996 15.18ZM59.2896 13.128C59.6616 13.128 59.9976 13.05 60.2976 12.894C60.5976 12.738 60.8556 12.528 61.0716 12.264C61.2996 11.988 61.4676 11.682 61.5756 11.346C61.6956 10.998 61.7556 10.638 61.7556 10.266C61.7556 9.87 61.6896 9.504 61.5576 9.168C61.4376 8.832 61.2576 8.538 61.0176 8.286C60.7776 8.022 60.4956 7.818 60.1716 7.674C59.8596 7.53 59.5176 7.458 59.1456 7.458C58.9176 7.458 58.6836 7.5 58.4436 7.584C58.2156 7.656 57.9936 7.764 57.7776 7.908C57.5616 8.052 57.3696 8.22 57.2016 8.412C57.0456 8.604 56.9316 8.814 56.8596 9.042V11.256C57.0036 11.604 57.1956 11.922 57.4356 12.21C57.6876 12.498 57.9756 12.726 58.2996 12.894C58.6236 13.05 58.9536 13.128 59.2896 13.128ZM81.3703 5.568H83.6563L79.7143 15H77.6983L76.1143 10.95L74.5663 15H72.5323L68.6083 5.568H70.8763L73.6843 12.696L74.7823 9.618L73.1443 5.586H75.1423L76.1143 8.466L77.1043 5.586H79.1023L77.4643 9.618L78.5803 12.696L81.3703 5.568ZM84.7699 15V5.568H87.1819V15H84.7699ZM84.7699 4.254V1.86H87.1819V4.254H84.7699ZM95.0098 14.514C94.8058 14.598 94.5598 14.694 94.2718 14.802C93.9838 14.91 93.6718 14.994 93.3358 15.054C93.0118 15.126 92.6818 15.162 92.3458 15.162C91.9018 15.162 91.4938 15.084 91.1218 14.928C90.7498 14.772 90.4498 14.526 90.2218 14.19C90.0058 13.842 89.8978 13.392 89.8978 12.84V7.422H88.6558V5.568H89.8978V2.508H92.3098V5.568H94.2898V7.422H92.3098V12.03C92.3218 12.354 92.4118 12.588 92.5798 12.732C92.7478 12.876 92.9578 12.948 93.2098 12.948C93.4618 12.948 93.7078 12.906 93.9478 12.822C94.1878 12.738 94.3798 12.666 94.5238 12.606L95.0098 14.514ZM105.032 15H102.62V9.708C102.62 8.976 102.476 8.43 102.188 8.07C101.912 7.71 101.528 7.53 101.036 7.53C100.748 7.53 100.442 7.614 100.118 7.782C99.794 7.95 99.5 8.184 99.236 8.484C98.984 8.772 98.798 9.108 98.678 9.492V15H96.266V1.86H98.678V7.314C99.026 6.714 99.5 6.246 100.1 5.91C100.7 5.574 101.354 5.406 102.062 5.406C102.674 5.406 103.172 5.514 103.556 5.73C103.94 5.934 104.24 6.216 104.456 6.576C104.672 6.924 104.822 7.32 104.906 7.764C104.99 8.196 105.032 8.646 105.032 9.114V15ZM120.561 12.822V15H111.687V2.22H120.399V4.398H114.171V7.476H119.553V9.492H114.171V12.822H120.561ZM136.863 15H134.451V9.708C134.451 8.964 134.319 8.418 134.055 8.07C133.803 7.71 133.449 7.53 132.993 7.53C132.525 7.53 132.075 7.716 131.643 8.088C131.223 8.448 130.923 8.922 130.743 9.51V15H128.331V9.708C128.331 8.952 128.199 8.4 127.935 8.052C127.683 7.704 127.329 7.53 126.873 7.53C126.405 7.53 125.955 7.71 125.523 8.07C125.103 8.43 124.803 8.904 124.623 9.492V15H122.211V5.568H124.389V7.314C124.749 6.702 125.229 6.234 125.829 5.91C126.429 5.574 127.119 5.406 127.899 5.406C128.679 5.406 129.285 5.598 129.717 5.982C130.161 6.366 130.443 6.84 130.563 7.404C130.947 6.756 131.433 6.264 132.021 5.928C132.621 5.58 133.293 5.406 134.037 5.406C134.625 5.406 135.099 5.514 135.459 5.73C135.831 5.934 136.119 6.216 136.323 6.576C136.527 6.924 136.665 7.32 136.737 7.764C136.821 8.208 136.863 8.658 136.863 9.114V15ZM138.315 12.21C138.315 11.598 138.483 11.064 138.819 10.608C139.167 10.14 139.647 9.78 140.259 9.528C140.871 9.276 141.573 9.15 142.365 9.15C142.761 9.15 143.163 9.18 143.571 9.24C143.979 9.3 144.333 9.396 144.633 9.528V9.024C144.633 8.424 144.453 7.962 144.093 7.638C143.745 7.314 143.223 7.152 142.527 7.152C142.011 7.152 141.519 7.242 141.051 7.422C140.583 7.602 140.091 7.866 139.575 8.214L138.801 6.63C139.425 6.222 140.061 5.916 140.709 5.712C141.369 5.508 142.059 5.406 142.779 5.406C144.123 5.406 145.167 5.742 145.911 6.414C146.667 7.086 147.045 8.046 147.045 9.294V12.3C147.045 12.552 147.087 12.732 147.171 12.84C147.267 12.948 147.417 13.014 147.621 13.038V15C147.405 15.036 147.207 15.066 147.027 15.09C146.859 15.114 146.715 15.126 146.595 15.126C146.115 15.126 145.749 15.018 145.497 14.802C145.257 14.586 145.107 14.322 145.047 14.01L144.993 13.524C144.585 14.052 144.075 14.46 143.463 14.748C142.851 15.036 142.227 15.18 141.591 15.18C140.967 15.18 140.403 15.054 139.899 14.802C139.407 14.538 139.017 14.184 138.729 13.74C138.453 13.284 138.315 12.774 138.315 12.21ZM144.183 12.696C144.315 12.552 144.423 12.408 144.507 12.264C144.591 12.12 144.633 11.988 144.633 11.868V10.914C144.345 10.794 144.033 10.704 143.697 10.644C143.361 10.572 143.043 10.536 142.743 10.536C142.119 10.536 141.603 10.674 141.195 10.95C140.799 11.214 140.601 11.568 140.601 12.012C140.601 12.252 140.667 12.48 140.799 12.696C140.931 12.912 141.123 13.086 141.375 13.218C141.627 13.35 141.927 13.416 142.275 13.416C142.635 13.416 142.989 13.35 143.337 13.218C143.685 13.074 143.967 12.9 144.183 12.696ZM149.299 15V5.568H151.711V15H149.299ZM149.299 4.254V1.86H151.711V4.254H149.299ZM153.869 1.86H156.281V11.976C156.281 12.408 156.353 12.702 156.497 12.858C156.641 13.002 156.839 13.074 157.091 13.074C157.283 13.074 157.481 13.05 157.685 13.002C157.889 12.954 158.069 12.894 158.225 12.822L158.549 14.658C158.225 14.814 157.847 14.934 157.415 15.018C156.983 15.102 156.593 15.144 156.245 15.144C155.489 15.144 154.901 14.946 154.481 14.55C154.073 14.142 153.869 13.566 153.869 12.822V1.86Z" fill="#69235B"/>
</svg>
